/* XPM */
static char *edcf95ddb16043f1a4692993f780603fcGdfsqklWAjHz6WF[] = {
/* columns rows colors chars-per-pixel */
"64 64 58 1 ",
"  c black",
". c #00001C",
"X c #28200C",
"o c #302410",
"O c #382C14",
"+ c #00002C",
"@ c #000034",
"# c #202020",
"$ c #2C2C2C",
"% c gray22",
"& c #4C0000",
"* c #580000",
"= c #700000",
"- c #7C0000",
"; c #403018",
": c #483818",
"> c #543C1C",
", c #404000",
"< c #585400",
"1 c #5C4020",
"2 c #6C4824",
"3 c #744C28",
"4 c #000040",
"5 c #005858",
"6 c #007070",
"7 c gray25",
"8 c #484848",
"9 c #4C4C4C",
"0 c gray33",
"q c gray36",
"w c #646464",
"e c gray44",
"r c #880000",
"t c #A40000",
"y c #B00000",
"u c #BC0000",
"i c #80502C",
"p c #885830",
"a c #905C34",
"s c #9C6038",
"d c #A0643C",
"f c #E46C00",
"g c #A86840",
"h c #B47044",
"j c #BC7848",
"k c #C87C4C",
"l c #848400",
"z c #D08050",
"x c #DC8854",
"c c #E88C58",
"v c #F0945C",
"b c #FC9C60",
"n c #FCA470",
"m c #980088",
"M c #008484",
"N c #989898",
"B c #FCB080",
"V c #FCB890",
/* pixels */
"mmmmmmmmmmmmmmmmmmmmmmmmmmmmmmmmmmmmmmmmmmmmmmmmmmmmmmmmmmmmmmmm",
"mmmmmmmmmmmmmmmmmmmmmmmmmmmmmmmmmmmmmmmmmmmmmmmmmmmmmmmmmmmmmmmm",
"mmmmmmmmmmmmmmmmmmmmmmmmmmmmmmmmmmmmmmmmmmmmmmmmmmmmmmmmmmmmmmmm",
"mmmmmmmmmmmmmmmmmmmmmmmmmmmmmmmmmmmmmmmmmmmmmmmmmmmmmmmmmmmmmmmm",
"mmmmmmmmmmmmmmmmmmmmmmmmmmw0088%%%mmmmmmmmmmmmmmmmmmmmmmmmmmmmmm",
"mmmmmmmmmmmmmmmmmmmmmmmmm800888%%%#mmmmmmmmmmmmmmmmmmmmmmmmmmmmm",
"mmmmmmmmmmmmmmmmmmmmmmmm0%%%$$$%%8%#mmmmmmmmmmmmmmmmmmmmmmmmmmmm",
"mmmmmmmmmmmmmmmmmmmmmmmm8gbp:##$$%3#mmmmmmmmmmmmmmmmmmmmmmmmmmmm",
"mmmmmmmmmmmmmmmmmmmmmmmm8zbbbbbxp#g#mmmmmmmmmmmmmmmmmmmmmmmmmmmm",
"mmmmmmmmmmmmmmmmmmmmmmmm8zBnbbbbBvd#mmmmmmmmmmmmmmmmmmmmmmmmmmmm",
"mmmmmmmmmmmmmmmmmmmmmmmm%kpdcnvBdpd#mmmmmmmmmmmmmmmmmmmmmmmmmmmm",
"mmmmmmmmmmmmmmmmmmmmmmmmpje $si$#espmmmmmmmmmmmmmmmmmmmmmmmmmmmm",
"mmmmmmmmmmmmmmmmmmmmmmmmhbBVBnxBVBzhmmmmmmmmmmmmmmmmmmmmmmmmmmmm",
"mmmmmmmmmmmmmmmmmmmmmmmmpbbbbBxbbbzpmmmmmmmmmmmmmmmmmmmmmmmmmmmm",
"mmmmmmmmmmmmmmmmmmmmmmmmmzjvjiijvjpmmmmmmmmmmmmmmmmmmmmmmmmmmmmm",
"mmmmmmmmmmmmmmmmmmmmmmmmmzhvj##jvhimmmmmmmmmmmmmmmmmmmmmmmmmmmmm",
"mmmmmmmmmmmmmmmmmmmmmmmmmzkvgppgvkimmmmmmmmmmmmmmmmmmmmmmmmmmmmm",
"mmmmmmmmmmmmmmmmmmmmmmmm sknnBnbbk2 mmmmmmmmmmmmmmmmmmmmmmmmmmmm",
"mmmmmmmmmmmmmmmmmmmmmmmd ikxxjhxxg: 1mmmmmmmmmmmmmmmmmmmmmmmmmmm",
"mmmmmmmmmmmmmmmmmmdd###d  sii22222  1113332mmmmmmmmmmmmmmmmmmmmm",
"mmmmmmmmmmmmmmmmdpgg$$$d   >cga>>   1113ppp2>mmmmmmmmmmmmmmmmmmm",
"mmmmmmmmmmmmmmmdggpd:$$3d N      e 11113pp311>mmmmmmmmmmmmmmmmmm",
"mmmmmmmmmmmmmmdghspd2###d2 N    e 11113pp31121>mmmmmmmmmmmmmmmmm",
"mmmmmmmmmmmmmdghgapdd:##;d3  3;  113ppppp31s221>mmmmmmmmmmmmmmmm",
"mmmmmmmmmmmmddhgappdd2###;sddd>2pphhhhsp3133si11>mmmmmmmmmmmmmmm",
"mmmmmmmmmmmmdghspgp1dd1###;dsd>sssh3333:31a3pyt-1>mmmmmmmmmmmmmm",
"mmmmmmmmmmmddutt=22>2ss1###;3s>sss2>::::31asurrr*>mmmmmmmmmmmmmm",
"mmmmmmmmmmmdutttt=21;2pp1###;3>iiid3a13;31au8M68$*>mmmmmmmmmmmmm",
"mmmmmmmmmmdu888%%-*:;22221####>333d3a13;  u0M #5%$*mmmmmmmmmmmmm",
"mmmmmmmmmmuM6%%%%M6:2121111####O;:1::;;O# 086#%5%8$mmmmmmmmmmmmm",
"mmmmmmmmmmM #5%%M #5i2111111O####O;1>>OX#808855$%88$mmmmmmmmmmmm",
"mmmmmmmmm86##5$%6##5mi::OOOOOOXX####XOXX M688  %8M6$mmmmmmmmmmmm",
"mmmmmmmmm8%55#  %55#m$$##### fl<,       M #5   #M #5mmmmmmmmmmmm",
"mmmmmmmmm8%%$    %$$m$$##### <<,,       6#%5%##86#%5mmmmmmmmmmmm",
"mmmmmmmmm8%M6%  %M6%m$$#####             55$%M68855#mmmmmmmmmmmm",
"mmmmmmmmm8M #5%%M #51:OOOOOOOOOX;;>>>>:::m%%M #5%8$mmmmmmmmmmmmm",
"mmmmmmmmmm6##5$%6##511>:;;;;:::O;>13333311-86#%5%$&mmmmmmmmmmmmm",
"mmmmmmmmmm-55#$%%55m11>:;;;;;::O>:3>>>;;;1y-%55#$&&mmmmmmmmmmmmm",
"mmmmmmmmmmy&$$%%%&&m121::;;;;;:OO1>111111;mmp1>>;mmmmmmmmmmmmmmm",
"mmmmmmmmmmmmz222>mmm121>:;;;;OOX;;122222211mg111;mmmmmmmmmmmmmmm",
"mmmmmmmmmmmms11>>mmm:::;OOOOOoXX;>123322221mm###mmmmmmmmmmmmmmmm",
"mmmmmmmmmmmmm###mmmm12321>:;OOoO:>12i332221mmmmmmmmmmmmmmmmmmmmm",
"mmmmmmmmmmmmmmmmmmmm12321>:;OOoO:>123i32221mmmmmmmmmmmmmmmmmmmmm",
"mmmmmmmmmmmmmmmmmmmm12321>:;OOoO:>112iii3221mmmmmmmmmmmmmmmmmmmm",
"mmmmmmmmmmmmmmmmmmmm12321>:;OOoO:>>iiiii3333mmmmmmmmmmmmmmmmmmmm",
"mmmmmmmmmmmmmmmmmmmm12321>:;OOooo:OO332222223mmmmmmmmmmmmmmmmmmm",
"mmmmmmmmmmmmmmmmmmmm12321>:;;OooXO:232>111>12mmmmmmmmmmmmmmmmmmm",
"mmmmmmmmmmmmmmmmmmmm3ii311>::;OoXO:>>:::::;:1mmmmmmmmmmmmmmmmmmm",
"mmmmmmmmmmmmmmmmmmm3i321;;;:::;; OOO;;;;;;OOmmmmmmmmmmmmmmmmmmmm",
"mmmmmmmmmmmmmmmmmmm33>:;;;;;;;;O  OOOOOOOOOOmmmmmmmmmmmmmmmmmmmm",
"mmmmmmmmmmmmmmmmmmmmoX::;;;;;OoX    XooooX mmmmmmmmmmmmmmmmmmmmm",
"mmmmmmmmmmmmmmmmmmmm                      mmmmmmmmmmmmmmmmmmmmmm",
"mmmmmmmmmmmmmmmmmmmmm.4+..               mmmmmmmmmmmmmmmmmmmmmmm",
"mmmmmmmmmmmmmmmmmmmmm.4@+.     m         mmmmmmmmmmmmmmmmmmmmmmm",
"mmmmmmmmmmmmmmmmmmmmm          m         mmmmmmmmmmmmmmmmmmmmmmm",
"mmmmmmmmmmmmmmmmmmmmmm ..     mmm        mmmmmmmmmmmmmmmmmmmmmmm",
"mmmmmmmmmmmmmmmmmmmmm.4++..    mm       mmmmmmmmmmmmmmmmmmmmmmmm",
"mmmmmmmmmmmmmmmmmmmww.444.     888888888888888888000qwmmmmmmmmmm",
"mmmmmmmmmmmmmmmmmwwq0          $$$$$$$$$$$$$$$$%%%800qwmmmmmmmmm",
"mmmmmmmmmmmmmmmmmmmwq0088887777%%%%%%%%%%%%778900qqqwwmmmmmmmmmm",
"mmmmmmmmmmmmmmmmmmmmmmmmmmmmmmmmmmmmmmmmmmmmmmmmmmmmmmmmmmmmmmmm",
"mmmmmmmmmmmmmmmmmmmmmmmmmmmmmmmmmmmmmmmmmmmmmmmmmmmmmmmmmmmmmmmm",
"mmmmmmmmmmmmmmmmmmmmmmmmmmmmmmmmmmmmmmmmmmmmmmmmmmmmmmmmmmmmmmmm",
"mmmmmmmmmmmmmmmmmmmmmmmmmmmmmmmmmmmmmmmmmmmmmmmmmmmmmmmmmmmmmmmm"
};
